<svg width="96" height="100" xmlns="http://www.w3.org/2000/svg" xmlns:xlink="http://www.w3.org/1999/xlink" overflow="hidden"><defs><clipPath id="clip0"><rect x="60" y="464" width="96" height="100"/></clipPath><clipPath id="clip1"><rect x="60" y="465" width="96" height="99"/></clipPath><clipPath id="clip2"><rect x="60" y="465" width="96" height="99"/></clipPath><clipPath id="clip3"><rect x="60" y="465" width="96" height="99"/></clipPath></defs><g clip-path="url(#clip0)" transform="translate(-60 -464)"><g clip-path="url(#clip1)"><g clip-path="url(#clip2)"><g clip-path="url(#clip3)"><path d="M87.0833 47.5 88.0729 47.5 88.0729 31.6667 6.92708 31.6667 6.92708 47.5 7.91667 47.5C11.8791 47.5 15.0911 50.7121 15.0911 54.6745 15.0911 58.6369 11.8791 61.849 7.91667 61.849L6.92708 61.849 6.92708 77.1875 88.0729 77.1875 88.0729 61.849 87.0833 61.849C83.1209 61.849 79.9089 58.6369 79.9089 54.6745 79.9089 50.7121 83.1209 47.5 87.0833 47.5ZM77.9297 54.6745C77.9334 59.3462 81.45 63.2677 86.0938 63.7786L86.0938 75.2083 69.2708 75.2083 69.2708 71.25 67.2917 71.25 67.2917 75.2083 8.90625 75.2083 8.90625 63.7747C13.9321 63.2292 17.5643 58.7128 17.0189 53.6869 16.555 49.4132 13.1799 46.0381 8.90625 45.5743L8.90625 33.6458 67.2917 33.6458 67.2917 37.6042 69.2708 37.6042 69.2708 33.6458 86.0938 33.6458 86.0938 45.5743C81.4515 46.085 77.9354 50.0042 77.9297 54.6745Z" fill="#000000" fill-rule="nonzero" fill-opacity="1" transform="matrix(1.91432e-16 1.04211 -1 1.83697e-16 155 465)"/><path d="M67.2917 41.5625 69.2708 41.5625 69.2708 47.5 67.2917 47.5Z" fill="#000000" fill-rule="nonzero" fill-opacity="1" transform="matrix(1.91432e-16 1.04211 -1 1.83697e-16 155 465)"/><path d="M67.2917 51.4583 69.2708 51.4583 69.2708 57.3958 67.2917 57.3958Z" fill="#000000" fill-rule="nonzero" fill-opacity="1" transform="matrix(1.91432e-16 1.04211 -1 1.83697e-16 155 465)"/><path d="M67.2917 61.3542 69.2708 61.3542 69.2708 67.2917 67.2917 67.2917Z" fill="#000000" fill-rule="nonzero" fill-opacity="1" transform="matrix(1.91432e-16 1.04211 -1 1.83697e-16 155 465)"/><path d="M23.75 45.5208 56.4062 45.5208 56.4062 47.5 23.75 47.5Z" fill="#000000" fill-rule="nonzero" fill-opacity="1" transform="matrix(1.91432e-16 1.04211 -1 1.83697e-16 155 465)"/><path d="M23.75 53.4375 42.5521 53.4375 42.5521 55.4167 23.75 55.4167Z" fill="#000000" fill-rule="nonzero" fill-opacity="1" transform="matrix(1.91432e-16 1.04211 -1 1.83697e-16 155 465)"/><path d="M23.75 61.3542 49.4792 61.3542 49.4792 63.3333 23.75 63.3333Z" fill="#000000" fill-rule="nonzero" fill-opacity="1" transform="matrix(1.91432e-16 1.04211 -1 1.83697e-16 155 465)"/><path d="M25.2769 28.6979 34.7116 28.6979 74.9718 20.9505 76.4651 28.6979 78.4809 28.6979 76.5403 18.6329 25.2581 28.5C25.2035 28.5051 25.1634 28.5537 25.1686 28.6084 25.1737 28.663 25.2223 28.7031 25.2769 28.6979Z" fill="#000000" fill-rule="nonzero" fill-opacity="1" transform="matrix(1.91432e-16 1.04211 -1 1.83697e-16 155 465)"/></g></g></g></g></svg>